HIERARCHY
ROOT Hips
{
	OFFSET 45.640099 -7.856596 95.456001
	CHANNELS 6 Xposition Yposition Zposition Xrotation Yrotation Zrotation
	JOINT spine
	{
		OFFSET 0.000000 -0.458068 7.965683
		CHANNELS 3 Xrotation Yrotation Zrotation
		JOINT spine1
		{
			OFFSET 0.000000 -0.000001 10.243103
			CHANNELS 3 Xrotation Yrotation Zrotation
			JOINT spine2
			{
				OFFSET 0.000000 -0.000002 9.814751
				CHANNELS 3 Xrotation Yrotation Zrotation
				JOINT Neck
				{
					OFFSET 0.000000 -1.201384 25.198593
					CHANNELS 3 Xrotation Yrotation Zrotation
					JOINT Head
					{
						OFFSET 0.000000 -0.000002 7.613144
						CHANNELS 3 Xrotation Yrotation Zrotation
						End Site
						{
							OFFSET 0.000000 6.077328 18.428101
						}
					}
				}
				JOINT RightShoulder
				{
					OFFSET -4.132698 0.575449 10.599197
					CHANNELS 3 Xrotation Yrotation Zrotation
					JOINT RightArm
					{
						OFFSET 0.000000 -0.000002 13.901794
						CHANNELS 3 Xrotation Yrotation Zrotation
						JOINT RightArmRoll
						{
							OFFSET 0.000000 -0.000001 7.017883
							CHANNELS 3 Xrotation Yrotation Zrotation
							JOINT RightForeArm
							{
								OFFSET 0.000000 -0.000003 20.440598
								CHANNELS 3 Xrotation Yrotation Zrotation
								JOINT RightForeArmRoll
								{
									OFFSET 0.000000 -0.000001 7.875153
									CHANNELS 3 Xrotation Yrotation Zrotation
									JOINT RightHand
									{
										OFFSET 0.000000 -0.000002 15.803696
										CHANNELS 3 Xrotation Yrotation Zrotation
										End Site
										{
											OFFSET 0.000000 0.000000 0.100006
										}
									}
								}
							}
						}
					}
				}
				JOINT LeftShoulder
				{
					OFFSET 4.132698 0.575449 10.599197
					CHANNELS 3 Xrotation Yrotation Zrotation
					JOINT LeftArm
					{
						OFFSET 0.000000 -0.000002 13.901794
						CHANNELS 3 Xrotation Yrotation Zrotation
						JOINT LeftArmRoll
						{
							OFFSET 0.000000 -0.000001 7.017883
							CHANNELS 3 Xrotation Yrotation Zrotation
							JOINT LeftForeArm
							{
								OFFSET 0.000000 -0.000003 20.440598
								CHANNELS 3 Xrotation Yrotation Zrotation
								JOINT LeftForeArmRoll
								{
									OFFSET 0.000000 -0.000001 7.875153
									CHANNELS 3 Xrotation Yrotation Zrotation
									JOINT LeftHand
									{
										OFFSET 0.000000 -0.000002 15.803696
										CHANNELS 3 Xrotation Yrotation Zrotation
										End Site
										{
											OFFSET 0.000000 0.000000 0.100006
										}
									}
								}
							}
						}
					}
				}
			}
		}
	}
	JOINT RightUpLeg
	{
		OFFSET -7.060478 1.086091 -1.294701
		CHANNELS 3 Xrotation Yrotation Zrotation
		JOINT RightUpLegRoll
		{
			OFFSET 0.000000 -0.000003 18.530800
			CHANNELS 3 Xrotation Yrotation Zrotation
			JOINT RightLeg
			{
				OFFSET 0.000000 0.000004 -22.947601
				CHANNELS 3 Xrotation Yrotation Zrotation
				JOINT RightLegRoll
				{
					OFFSET 0.000000 -0.000004 23.022598
					CHANNELS 3 Xrotation Yrotation Zrotation
					JOINT RightFoot
					{
						OFFSET 0.000000 -0.000003 19.162498
						CHANNELS 3 Xrotation Yrotation Zrotation
						JOINT RightToeBase
						{
							OFFSET 0.000000 -0.000003 16.018799
							CHANNELS 3 Xrotation Yrotation Zrotation
							End Site
							{
								OFFSET 0.006790 0.894205 7.757828
							}
						}
					}
				}
			}
		}
	}
	JOINT LeftUpLeg
	{
		OFFSET 7.060478 1.086091 -1.294701
		CHANNELS 3 Xrotation Yrotation Zrotation
		JOINT LeftUpLegRoll
		{
			OFFSET 0.000000 -0.000003 18.530899
			CHANNELS 3 Xrotation Yrotation Zrotation
			JOINT LeftLeg
			{
				OFFSET 0.000000 -0.000003 22.947495
				CHANNELS 3 Xrotation Yrotation Zrotation
				JOINT LeftLegRoll
				{
					OFFSET 0.000000 -0.000004 23.235504
					CHANNELS 3 Xrotation Yrotation Zrotation
					JOINT LeftFoot
					{
						OFFSET 0.000000 -0.000003 18.949600
						CHANNELS 3 Xrotation Yrotation Zrotation
						JOINT LeftToeBase
						{
							OFFSET 0.000000 -0.000002 16.018799
							CHANNELS 3 Xrotation Yrotation Zrotation
							End Site
							{
								OFFSET -0.030430 0.894205 7.757812
							}
						}
					}
				}
			}
		}
	}
}
MOTION
Frames: 6
Frame Time: 0.041667
38.854500 -9.662256 96.639992 -3.227303 -0.850669 -5.003344 -0.485769 0.124335 -0.491645 3.032407 0.241178 -0.983304 4.677387 0.229383 -0.986122 9.769942 -3.195801 7.405492 13.207807 10.182549 5.564223 -9.951559 -66.436150 -12.179318 -53.762492 -119.910255 -83.356127 -0.000004 0.000013 0.000001 62.615588 -13.287251 4.816710 -0.000012 0.000002 -3.007299 -5.000300 -7.998693 0.000173 -9.882694 60.904469 11.784397 -43.950584 114.640818 74.528210 -0.000000 0.000001 -0.000003 73.784621 9.122481 -1.280830 0.000001 -0.000006 3.000012 -4.999767 7.998971 -0.000039 -2.149790 -177.468778 2.660382 -179.999991 0.000005 -1.143997 171.599965 -2.301076 -0.636699 0.000001 0.000001 0.139494 70.197734 6.948738 1.908335 25.456979 -7.352783 0.000003 4.234245 174.233672 1.304361 -0.000005 -0.000004 -1.330360 -6.423077 -3.610076 0.084259 -0.000002 0.000002 0.080294 67.765954 -6.985543 -1.956101 26.064885 7.352206 -0.847950 
38.830002 -9.656024 96.636101 -3.233734 -0.859131 -4.986728 -0.475450 0.120509 -0.487755 3.053005 0.233998 -0.975546 4.697984 0.222296 -0.978280 9.781488 -3.309256 7.529009 13.077726 10.406303 5.657949 -10.021990 -66.437264 -12.259263 -53.805263 -119.837554 -83.451948 -0.000004 0.000012 -0.000002 62.607037 -13.303498 4.832648 -0.000010 0.000000 -3.007300 -5.000302 -7.998693 0.000174 -9.791067 60.930273 11.679035 -44.010669 114.693370 74.741251 -0.000001 -0.000002 -0.000002 73.880360 9.113812 -1.267258 -0.000000 -0.000005 3.000011 -4.999769 7.998969 -0.000037 -2.134040 -177.478750 2.652120 -179.999991 0.000005 -1.143996 171.627136 -2.293316 -0.636438 0.000000 0.000001 0.138882 70.166506 6.948807 1.909401 25.456979 -7.352785 0.000004 4.237868 174.181831 1.199564 -0.000005 -0.000004 -1.330500 -6.402593 -3.514836 0.086743 -0.000002 0.000002 0.078203 67.769752 -6.985576 -1.955868 26.009768 7.352829 -0.770886 
38.810501 -9.662417 96.643600 -3.239842 -0.867122 -4.972302 -0.465282 0.116557 -0.483990 3.073304 0.226621 -0.968036 4.718283 0.215010 -0.970681 9.793542 -3.422817 7.653202 12.947319 10.631523 5.753226 -10.088592 -66.437072 -12.334819 -53.846278 -119.767941 -83.549715 -0.000006 0.000012 -0.000000 62.596532 -13.321380 4.849635 -0.000011 -0.000001 -3.007301 -5.000300 -7.998693 0.000172 -9.705156 60.957396 11.580501 -44.067841 114.744951 74.953103 -0.000000 0.000000 -0.000003 73.978489 9.104499 -1.253153 0.000001 -0.000005 3.000013 -4.999771 7.998970 -0.000037 -2.117859 -177.488708 2.643120 -179.999991 0.000005 -1.143997 171.656792 -2.284584 -0.635954 0.000000 0.000001 0.138226 70.133933 6.948916 1.910458 25.456977 -7.352782 0.000003 4.243186 174.129020 1.094303 -0.000005 -0.000004 -1.330720 -6.379224 -3.419535 0.089187 -0.000002 0.000003 0.076270 67.772190 -6.985637 -1.955627 25.954642 7.353309 -0.693808 
38.805099 -9.665557 96.658699 -3.245707 -0.874782 -4.959385 -0.455221 0.112517 -0.480313 3.093383 0.219108 -0.960696 4.738370 0.207585 -0.963252 9.805933 -3.536426 7.777892 12.816732 10.857513 5.849931 -10.152431 -66.435939 -12.407225 -53.884623 -119.700855 -83.647148 -0.000004 0.000014 -0.000003 62.584743 -13.340373 4.867287 -0.000011 -0.000001 -3.007301 -5.000298 -7.998694 0.000173 -9.623226 60.985496 11.486726 -44.123056 114.795864 75.164360 -0.000002 0.000001 0.000000 74.078224 9.094763 -1.238420 -0.000000 -0.000005 3.000010 -4.999767 7.998971 -0.000039 -2.101394 -177.499678 2.633655 -179.999991 0.000005 -1.143997 171.688211 -2.275873 -0.635398 0.000001 0.000001 0.137539 70.100513 6.949047 1.911473 25.456974 -7.352782 0.000003 4.249686 174.077220 0.988846 -0.000005 -0.000004 -1.330990 -6.353824 -3.324191 0.091569 -0.000002 0.000002 0.074447 67.773583 -6.985760 -1.955263 25.899505 7.353647 -0.616731 
38.779099 -9.661848 96.655602 -3.251446 -0.882254 -4.947348 -0.445222 0.108426 -0.476685 3.113341 0.211521 -0.953453 4.758327 0.200084 -0.955918 9.818543 -3.650045 7.902876 12.685966 11.083873 5.947923 -10.214669 -66.434163 -12.477815 -53.922701 -119.634916 -83.745831 -0.000004 0.000012 0.000001 62.572244 -13.360023 4.885380 -0.000009 0.000000 -3.007302 -5.000298 -7.998691 0.000173 -9.543444 61.013868 11.395529 -44.176455 114.846202 75.374491 -0.000001 -0.000000 0.000001 74.178798 9.084896 -1.223548 0.000001 -0.000005 3.000011 -4.999773 7.998968 -0.000038 -2.084759 -177.510647 2.623891 -179.999991 0.000005 -1.143998 171.720641 -2.267152 -0.634822 0.000001 0.000001 0.136835 70.066567 6.949166 1.912517 25.456977 -7.352784 0.000004 4.256853 174.024409 0.883154 -0.000005 -0.000004 -1.331290 -6.327295 -3.228834 0.093873 -0.000002 0.000003 0.072688 67.774458 -6.985873 -1.955031 25.844252 7.353852 -0.539648 
38.758301 -9.660080 96.662193 -3.257142 -0.889681 -4.935528 -0.435241 0.104324 -0.473066 3.133271 0.203917 -0.946229 4.778256 0.192568 -0.948605 9.831194 -3.763625 8.027963 12.555176 11.310016 6.047036 -10.276568 -66.432291 -12.548009 -53.961285 -119.569128 -83.845333 -0.000005 0.000012 -0.000001 62.559581 -13.379804 4.903520 -0.000011 0.000002 -3.007299 -5.000301 -7.998695 0.000170 -9.464121 61.042466 11.304900 -44.228801 114.896226 75.583850 -0.000001 0.000001 -0.000000 74.279666 9.074960 -1.208397 0.000000 -0.000007 3.000010 -4.999771 7.998969 -0.000035 -2.068079 -177.521616 2.614051 -179.999991 0.000005 -1.143997 171.753330 -2.258429 -0.634233 0.000000 0.000001 0.136129 70.032423 6.949315 1.913482 25.456979 -7.352785 0.000002 4.264184 173.972609 0.777474 -0.000005 -0.000005 -1.331591 -6.300487 -3.133467 0.096089 -0.000002 0.000002 0.070943 67.775229 -6.985976 -1.954800 25.789001 7.353928 -0.462559 
